<svg width="121" height="131" viewBox="0 0 121 131" fill="none" xmlns="http://www.w3.org/2000/svg">
<g clip-path="url(#clip0_51557_59212)">
<path d="M42.571 165.461C38.727 162.498 36.3093 153.133 41.8861 160.928C43.0443 162.011 47.3126 166.205 42.571 165.461ZM50.9012 164.501C43.6859 160.617 40.0642 152.311 37.0499 145.118C34.2225 135.881 34.7769 126.375 32.2795 117.031C30.2698 113.969 31.8282 100.71 34.8418 104.388C32.5315 115.939 37.2349 127.301 38.1419 138.759C40.6467 146.817 43.5498 155.065 49.7249 161.148C51.3469 162.412 54.93 168.12 50.9012 164.501ZM66.3118 164.069C64.9868 160.197 68.7541 163.869 66.3118 164.069V164.069ZM53.0438 160.008C46.4269 153.221 43.1215 143.72 40.585 134.821C38.7147 125.735 36.5012 116.678 37.217 107.355C37.5671 99.5701 39.6862 89.4952 45.4647 84.7023C43.1982 92.5108 38.0487 101.855 39.1741 111.158C39.5946 119.59 40.8387 127.504 43.497 135.628C46.0382 143.903 49.3142 152.079 54.5691 159.039C61.8193 161.175 55.2135 165.685 53.0438 160.008ZM63.4138 162.444C56.3959 158.431 70.6884 161.014 63.4138 162.444V162.444ZM70.0067 161.073C61.0337 156.338 58.3884 145.539 54.2513 137.377C57.4163 128.887 63.1735 147.677 64.2725 151.786C65.4096 156.658 73.0059 160.128 74.2623 161.773C72.8429 161.972 71.2133 161.977 70.0067 161.073ZM80.7403 160.068C80.9624 158.17 82.5577 161.21 80.7403 160.068V160.068ZM57.6717 158.121C51.9769 151.521 49.7585 142.977 47.0148 135.068C45.6927 126.963 51.6907 132.725 50.6288 137.423C51.6253 144.891 60.2642 152.207 58.5599 158.764C58.2638 158.55 57.9678 158.335 57.6717 158.121ZM76.5201 158.331C72.1812 157.191 62.3365 148.317 67.1083 146.95C68.1594 151.581 77.6781 154.492 76.5201 158.331ZM85.8678 158.331C77.7039 155.845 72.7935 148.07 66.358 143.076C72.7264 142.713 78.7568 152.61 85.4663 155.889C86.4743 156.605 88.9622 160.515 85.8678 158.331ZM35.3495 155.581C31.6207 144.524 43.9749 159.243 35.3495 155.581V155.581ZM90.0733 154.56C85.94 153.535 74.7808 145.844 79.8476 144.647C84.0313 147.504 90.9537 152.841 92.7025 155.18C91.8122 155.403 90.7035 155.328 90.0733 154.56ZM30.3473 154.583C30.8601 152.549 32.3059 156.11 30.3473 154.583V154.583ZM28.0187 152.214C23.4501 145.357 22.3801 136.792 23.4743 128.925C22.8127 121.321 26.7258 114.445 26.6198 106.834C29.325 98.9331 29.3887 90.1439 33.8409 82.7917C36.368 78.2688 40.1786 73.0071 45.5662 73.6793C44.6256 67.8207 50.5141 73.0382 52.9214 67.5117C61.4974 62.254 71.4477 60.1409 81.2192 58.357C95.1534 61.6477 105.402 72.3147 113.469 83.5339C120.007 90.2861 123.455 99.4261 130.311 105.89C133.118 109.741 130.514 115.786 127.862 108.795C123.085 101.974 116.143 96.3392 112.983 88.685C108.125 80.6904 102.289 73.9972 95.5134 67.6833C87.6869 62.2933 77.3603 59.0683 68.2131 63.3725C56.9761 66.2351 47.0595 73.3352 41.3661 83.5039C35.9563 85.9072 48.3539 70.978 39.6355 78.3906C33.5236 84.6189 32.9413 93.9962 30.2005 101.882C29.2299 111.149 26.093 119.226 25.7794 128.321C25.3957 136.765 27.616 145.317 30.3863 152.984L29.6546 153.065L28.0189 152.214H28.0187ZM97.9712 153.21C89.9652 149.17 83.1334 143.131 77.1261 136.707C73.2147 132.138 80.07 125.6 81.0582 133.373C85.0094 142.627 95.655 145.354 100.727 153.191L99.9723 153.468L97.9712 153.21ZM106.166 150.919C104.402 145.06 112.315 151.645 106.166 150.919V150.919ZM34.5035 148.161C33.7457 145.968 36.6723 148.894 34.5035 148.161V148.161ZM98.5517 145.806C91.3005 141.517 85.2886 135.519 81.9043 127.782C76.9812 118.611 73.945 107.716 74.1875 97.0535C77.8773 94.3191 76.7131 106.255 78.7761 108.648C79.5577 117.455 83.9241 122.692 86.822 130.954C91.5512 136.245 99.0076 142.934 104.973 147.635C103.075 150.044 99.9117 147.668 98.5517 145.806ZM31.104 146.037C27.8841 137.891 29.6968 128.881 29.1247 120.363C32.9207 118.983 29.7129 131.691 32.2302 135.74C31.3854 138.117 37.7355 150.503 31.104 146.037ZM110.036 146.378C102.926 141.774 96.3266 136.963 91.7741 130.539C87.4386 122.708 82.6607 114.526 81.0532 105.618C87.8641 104.183 84.828 119.255 91.571 121.162C93.5583 130.584 102.672 139.422 111.641 143.77C114.953 145.681 113.615 148.294 110.036 146.378ZM75.4181 143.944C69.299 141.187 62.7285 128.37 67.9951 124.576C71.9372 129.991 70.4234 138.186 77.3585 142.018C77.3321 142.572 76.0514 145.601 75.4181 143.944ZM18.725 143.009C16.1943 135.58 19.9256 127.654 19.0941 120.16C18.7702 110.876 22.3141 101.833 25.1294 92.7646C27.7212 86.4509 23.8939 86.2321 22.3681 92.0549C20.0535 99.276 17.43 106.271 16.3181 113.957C12.1802 119.15 21.5422 126.7 13.6329 130.809C5.22264 122.489 16.9746 111.203 17.497 101.481C19.2004 93.5971 21.7249 85.356 28.9489 80.8392C31.966 77.4384 39.0045 68.2805 41.1413 70.3283C34.4365 77.5418 26.8105 84.4788 26.4269 95.0527C24.2138 104.606 21.0449 113.759 21.0164 124.06C20.5285 130.4 20.8304 136.949 18.725 143.009ZM14.6703 126.345C16.8679 119.755 7.69207 129.327 14.6703 126.345V126.345ZM63.6709 140.154C58.6421 133.583 58.1207 125.407 58.4568 117.56C57.4866 113.196 58.979 98.3686 60.1585 110.197C60.7884 118.782 61.0794 128.575 65.5431 135.738C66.9766 137.154 66.5277 145.21 63.6709 140.154ZM113.964 141.51C116.41 133.935 104.371 129.236 102.119 121.985C97.7919 114.984 93.4037 108.372 91.3408 100.382C87.5543 94.1411 81.3969 81.8697 72.6545 87.6694C63.7906 93.2207 66.1312 104.942 66.5193 113.748C68.5649 117.241 68.0133 126.375 63.9725 119.852C63.8025 111.532 62.5238 103.006 64.3353 94.7729C66.482 88.0931 74.5973 80.7402 81.9314 83.9789C90.4856 90.7926 94.369 101.351 98.9616 110.941C103.501 119.198 108.269 127.208 114.812 134.108C118.16 135.842 119.015 142.58 113.964 141.51ZM109.864 139.819C97.5106 131.717 92.0398 117.093 86.3405 104.132C85.3636 97.1692 75.8622 85.617 71.7192 96.7773C69.4354 105.959 74.5373 114.481 74.4478 123.155C69.8593 124.767 71.257 111.925 69.1526 108.136C67.5742 100.544 70.8335 85.0933 81.2402 90.8176C88.9187 97.1962 89.3436 107.882 94.8083 115.772C99.161 125.015 105.488 133.424 113.174 140.068C112.561 141.105 110.705 139.772 109.864 139.819ZM119.633 133.711C114.404 126.707 107.191 121.219 103.873 112.873C98.0586 104.079 95.3633 93.2922 88.0965 85.5185C82.167 81.5456 73.563 72.7818 66.6475 79.686C60.6761 82.1904 55.04 93.7615 52.0567 93.8477C54.0095 85.1291 61.9977 78.3601 69.9132 74.9796C78.1536 73.0886 84.1612 80.3922 90.7165 83.9541C102.182 96.6944 104.993 115.337 117.946 127.059C118.801 128.677 126.864 138.744 119.633 133.711ZM14.3921 134.477C15.4204 132.975 15.2673 136.439 14.3921 134.477V134.477ZM13.1922 133.648C12.9693 130.685 15.2624 135.267 13.1922 133.648V133.648ZM52.9948 133.449C49.0984 125.282 47.2588 116.431 47.6477 107.259C45.2208 102.597 54.3087 91.0213 51.06 101.289C49.3629 108.469 49.4999 116.546 50.9062 123.645C58.5237 126.368 48.0503 108.205 55.1047 110.682C55.1196 116.875 56.0446 125.205 55.4291 130.286C57.5802 132.138 54.7084 133.491 52.9948 133.449ZM44.452 128.916C42.7593 119.416 40.8146 109.603 42.9271 99.837C45.9693 89.2407 52.8598 79.4827 61.9417 73.2978C69.2017 69.6257 78.2449 65.8596 85.7617 71.2081C90.2588 73.4844 98.7417 81.4688 95.6155 85.0085C91.6235 80.164 85.0952 76.6867 80.3722 74.4756C83.6462 74.3195 89.8113 76.0604 83.2402 72.5856C76.9665 69.6957 69.5856 71.6581 63.8837 75.2108C57.4435 78.176 53.1255 84.6795 49.5631 90.6693C43.6237 97.7596 44.4971 108.828 45.6601 117.806C44.7249 120.261 50.389 132.928 44.452 128.916ZM73.6123 128.854C71.0176 121.277 82.9014 129.455 74.4686 129.557C74.1831 129.323 73.8977 129.088 73.6123 128.854ZM121.92 126.906C116.352 119.464 110.909 111.878 105.995 104.141C104.009 99.529 96.2531 88.895 99.4348 86.7742C105.005 92.9066 107.972 100.945 112.405 108.28C115.948 115.001 121.686 120.346 125.627 126.723C124.721 127.65 123.05 126.89 121.92 126.906ZM127.351 124.398C126.92 121.426 129.509 125.187 127.351 124.398V124.398ZM6.75173 121.78C4.64648 115.654 14.3572 104.19 10.154 102.229C8.84353 106.587 3.29523 112.521 6.50121 104.092C12.5129 99.2519 14.5553 91.031 19.3111 85.9065C16.1864 96.2213 12.3531 106.421 9.85726 116.965C9.20171 118.748 8.52842 120.792 6.75173 121.78ZM126.049 120.409C122.57 113.036 115.592 107.82 112.656 100.49C105.586 94.534 104.663 84.6404 97.834 78.451C91.9049 72.1137 84.9165 64.8119 75.3596 65.8889C66.3546 67.4736 56.3001 71.8525 51.4106 79.8273C48.2555 85.1634 44.4692 81.6266 49.3452 77.9542C56.1917 68.9055 67.8101 64.774 78.7701 63.7411C89.1437 65.2851 97.5338 72.0909 103.527 80.3662C108.941 87.1858 112.034 95.499 117.847 102.073C118.583 107.665 131.657 115.885 126.049 120.409ZM5.32608 112.424C4.75976 110.153 7.20885 112.972 5.32608 112.424V112.424ZM53.7072 106.248C52.9504 103.229 55.7128 90.0103 56.085 99.6833C55.7692 100.986 55.9193 107.808 53.7072 106.248ZM132.918 103.12C124.058 91.5101 114.87 80.1364 105.464 68.9868C98.5642 62.9942 90.8164 56.4443 81.1592 56.3258C73.1999 53.4285 64.6974 53.9737 57.0045 57.1471C48.7064 60.3069 41.0195 64.6274 34.5242 70.7615C29.5375 73.6462 23.9759 85.286 20.5824 82.9194C28.4398 72.4713 38.4271 63.31 50.2156 57.5448C64.0253 52.0832 79.8802 50.9594 93.7524 56.8592C100.766 59.8811 106.149 65.9364 111.524 71.0967C118.203 77.6901 122.912 85.7089 128.983 92.6476C129.075 95.9255 141.393 104.663 132.918 103.12ZM80.2971 102.313C77.1003 97.9455 79.5849 93.3785 81.6237 99.9602C82.3991 100.805 82.0409 104.606 80.2971 102.313ZM3.92301 100.374C12.8083 89.7395 16.4959 74.8259 28.7251 67.0716C30.0495 71.4754 17.2285 78.5147 15.3868 85.6673C12.387 90.9576 11.0212 99.1503 3.92301 100.374ZM33.1323 100.51C31.8372 94.3237 39.7386 101.665 33.1323 100.51V100.51ZM59.7627 98.9446C56.8227 95.1347 64.8573 81.1646 64.7869 88.2003C62.6709 91.5668 62.3289 95.8493 59.7627 98.9446ZM34.5035 96.3965C34.715 92.045 40.9548 80.2778 38.0488 90.9887C37.4145 92.7855 37.3133 96.7478 34.5035 96.3965ZM134.611 94.2923C124.974 80.867 114.553 67.4098 101 57.7323C89.6643 50.6815 75.4571 48.2603 62.5843 51.875C57.8742 52.9145 52.6157 51.4439 59.9174 50.1927C67.8256 49.566 75.5469 46.9368 83.5035 48.3546C96.657 50.7058 109.209 57.9033 117.387 68.572C124.344 76.3234 131.638 83.9329 137.291 92.6939C139.064 95.2526 135.898 95.2219 134.611 94.2923ZM4.5363 93.8486C4.58007 85.1774 12.1295 78.617 16.4874 71.6842C24.5392 61.3081 34.907 52.5985 46.7889 46.9892C52.48 47.4955 39.3157 53.749 36.155 55.7637C29.321 60.0736 24.998 67.2112 18.5246 71.9481C14.7993 78.6479 9.42248 84.4353 6.90843 91.7311C6.67956 92.703 5.78342 94.1558 4.5363 93.8486ZM56.3005 93.039C54.4733 87.9974 60.2789 95.8773 56.3005 93.039V93.039ZM138.048 87.1564C129.301 75.2401 119.06 64.1707 107.353 55.1278C99.7446 51.4506 92.3867 46.1191 83.5806 45.8853C77.9736 42.2322 70.4026 49.1148 66.7496 45.45C73.7391 40.0453 83.3791 43.4236 91.6246 45.1507C101.626 48.6999 111.733 53.1565 118.94 61.3001C127.498 67.3973 132.05 77.4572 139.491 84.6624C140.567 85.8245 140.072 88.1342 138.048 87.1564ZM2.63853 84.4144C1.26134 80.005 13.4148 69.453 8.22773 77.803C5.96407 79.5647 6.34737 84.7782 2.63853 84.4144ZM66.2202 83.5126C68.4363 79.13 81.1657 79.2862 71.4503 82.9164C70.2034 83.3438 66.3162 86.676 66.2202 83.5126ZM139.432 80.5421C136.427 74.4844 128.447 66.7462 126.911 63.0069C133.469 64.9518 140.397 71.5412 144.201 75.8867C141.352 73.5085 133.462 71.1165 139.424 76.5388C141.163 78.357 145.203 84.8852 139.432 80.5421ZM1.93587 75.7319C-1.92201 70.8835 13.1177 64.1974 6.10135 71.6312C5.15609 72.9571 4.52216 78.424 1.93587 75.7319ZM11.0497 72.7293C8.92139 68.3321 19.2097 64.7843 13.7459 71.0606C13.2905 71.9397 12.2509 73.5605 11.0497 72.7293ZM142.431 68.8575C132.402 62.8648 127.009 51.7769 116.89 45.8939C110.905 40.2736 104.023 36.5998 96.1693 34.2469C87.1533 30.8152 77.5523 29.9656 67.9591 30.5024C60.1352 30.5526 52 31.8833 44.6316 33.4605C32.7506 37.6199 23.868 46.8592 13.8303 54.0469C6.52799 55.5768 18.4445 46.657 21.1395 45.4186C27.6606 38.7552 36.4833 34.9273 44.6701 30.8742C52.8309 30.3217 60.8113 28.7745 68.9254 27.7739C76.877 26.5564 84.2503 29.3048 91.9967 30.2909C99.0361 32.348 106.246 34.2659 112.026 39.225C120.032 43.2928 126.052 50.0379 132.922 55.6341C132.472 61.0519 149.461 67.2891 142.431 68.8575ZM42.3798 68.6206C46.6538 62.8764 54.5272 62.0498 60.4442 58.6926C64.2182 55.3026 80.1655 56.2738 68.6896 58.6974C59.511 59.7069 52.0471 65.5709 43.4898 68.4111L42.3798 68.6206ZM0 67.0795C2.25084 61.1827 3.93528 69.0479 0 67.0795V67.0795ZM8.65001 66.5939C11.744 56.2853 22.5935 51.5972 30.3986 45.3426C37.7039 38.0238 47.959 34.4422 58.1968 34.3741C68.6348 31.3927 79.7636 32.5713 90.0834 35.3611C93.5859 36.735 106.599 38.956 103.783 42.0028C96.4557 40.1479 89.5722 36.5114 81.9914 35.8591C72.9709 32.5301 63.5251 34.7213 54.5703 36.8901C40.4525 38.2474 29.791 48.322 18.9838 56.3923C15.4855 59.6111 13.6493 65.4336 8.65001 66.5939ZM15.7633 65.1872C20.3182 56.9468 29.2062 52.6753 36.0729 46.6727C46.6096 40.0168 59.2029 37.2587 71.5299 36.8752C79.3975 36.6145 86.9187 39.1491 94.2658 41.1699C99.0569 41.7229 106.329 48.3504 108.887 46.7383C102.186 37.1917 118.326 51.1443 120.909 53.7403C125.387 55.5574 130.327 64.1562 122.521 60.3507C117.489 53.0924 110.022 49.2321 101.828 46.5659C88.9752 39.4593 73.7299 38.8992 59.4196 40.1141C47.1703 41.7051 36.3031 48.3964 27.5576 56.8589C22.2618 57.0725 20.7564 65.8474 15.7633 65.1872ZM30.3898 65.8865C33.7076 58.1955 44.4811 55.7505 49.3777 50.9998C49.7365 55.5032 56.1516 52.2395 49.9013 54.8168C42.2781 56.5981 37.238 63.9414 30.3898 65.8865ZM2.39374 63.8604C5.37173 55.3343 9.29825 68.7478 2.39374 63.8604V63.8604ZM143.117 60.2873C135.219 53.5361 124.969 44.8527 119.224 38.4399C128.336 38.0804 133.136 48.657 139.562 54.015C142.296 54.6577 150.923 65.7862 143.117 60.2873ZM1.25105 60.4015C-1.63799 55.4593 10.3468 54.6338 3.02719 59.2116L2.20853 59.7818L1.25105 60.4015ZM8.12296 59.3888C6.58121 53.7776 13.5016 59.9872 8.12296 59.3888V59.3888ZM5.13622 54.4487C-0.261273 49.6497 14.6161 45.8191 16.2636 40.5532C20.0285 36.1389 26.8172 37.7902 19.761 42.3599C13.9648 44.661 7.8012 53.2214 5.13622 54.4487ZM145.718 53.6025C139.189 48.456 134.257 41.5588 127.37 36.8101C122.601 29.6974 114.531 27.7511 107.531 23.8439C103.06 18.8806 91.7226 20.1927 90.1497 14.8531C98.3779 15.9575 105.951 19.6337 113.204 23.5107C123.448 28.4872 131.685 36.6356 140.188 44.0248C141.824 44.7621 152.618 59.5993 145.718 53.6025ZM50.387 49.936C52.933 45.8759 66.8056 45.9168 63.6949 47.1777C59.1643 47.6571 55.0896 50.9336 50.387 49.936ZM1.53672 47.2605C2.47102 44.3569 4.65981 48.7371 1.53672 47.2605V47.2605ZM3.76498 45.2802C3.56196 40.1995 19.3322 34.8015 10.6979 41.3717C8.54227 42.0361 5.81714 46.6575 3.76498 45.2802ZM50.387 45.9069C54.2753 42.7106 67.9573 39.518 66.3304 42.6922C61.1888 44.4808 55.7373 45.0689 50.387 45.9069ZM145.259 43.88C138.291 34.7785 128.332 28.4541 118.563 22.7346C106.557 16.4156 93.0533 9.37185 79.106 13.3539C70.8314 15.3915 61.7784 13.7059 53.9865 17.7789C50.575 18.3292 38.867 24.5368 40.5647 20.2489C49.1216 16.883 57.4788 12.2936 66.925 12.3335C75.4211 11.6479 83.849 9.21943 92.3725 10.0133C101.439 11.8102 110.203 14.8528 118.2 19.5476C127.276 23.1961 134.299 30.3543 142.226 35.8258C143.867 36.6077 150.548 45.7841 145.259 43.88ZM2.62942 40.5257C4.2931 31.8034 14.6295 29.2247 21.1272 24.8411C31.6612 18.361 42.9933 13.2356 54.5474 8.88497C62.3341 6.86587 70.6845 5.682 78.6262 7.05001C75.3885 10.1562 64.7346 8.26813 58.6801 10.4384C43.8019 14.61 30.1017 22.2315 16.8319 29.9327C12.4584 33.7928 6.0965 37.0441 2.62942 40.5257ZM112.178 36.0491C107.213 28.5378 123.633 42.294 113.035 36.908C112.749 36.6217 112.464 36.3354 112.178 36.0491ZM14.3921 36.6652C19.5333 30.2886 27.4605 27.2367 34.4682 23.6113C42.8194 23.8783 28.4094 28.8519 25.9576 30.9092C22.2968 32.769 18.5127 37.0059 14.3921 36.6652ZM23.833 36.6556C29.3834 31.3828 37.0613 29.2847 43.245 24.8919C51.8514 21.059 60.6667 17.4915 70.2493 17.3191C78.0726 14.653 85.4592 17.2375 92.8993 19.9694C96.4024 20.7677 109.051 25.9108 99.1321 23.8459C85.0017 18.4812 69.291 18.7319 54.7832 22.3768C45.4933 26.0082 37.0087 31.246 28.2697 35.9089C26.8554 36.4287 25.3451 36.7345 23.833 36.6556ZM121.87 36.2987C115.944 32.2705 109.001 31.0598 102.136 30.0313C91.1573 26.9082 79.6677 24.272 68.2025 25.0657C61.725 24.7728 54.5113 29.5901 48.723 27.7868C56.2755 24.654 64.6188 23.1897 72.7005 22.5674C84.8565 21.7096 96.3808 26.0919 108.098 28.5398C110.715 29.1944 125.693 34.3486 121.87 36.2987ZM2.62228 32.634C5.29099 23.3275 16.9228 21.6529 24.0896 16.9164C36.3421 11.9227 47.3902 3.64905 60.8731 2.06589C64.4558 0.582855 79.2558 1.70317 68.1321 3.58031C60.1969 4.3284 52.3898 5.81268 45.1606 9.45273C35.4588 12.1916 27.7386 19.1668 18.3365 22.6616C12.8328 25.5889 7.91339 29.2842 2.62228 32.634ZM144.74 31.4656C135.271 25.3666 125.657 19.5796 115.625 14.4692C108.64 10.6128 100.617 9.4097 93.3296 6.37406C87.2496 7.75511 78.2211 4.65703 75.2076 2.33705C83.2543 0.676941 92.2222 4.24967 100.332 5.96925C107.485 8.73442 115.032 11.1008 121.543 15.0076C123.486 17.836 134.402 21.7045 128.126 15.5785C115.637 8.25789 102.32 1.77143 87.8134 -0.421432C72.7002 -2.57707 56.6758 -2.31769 42.7548 4.61965C38.9677 5.47253 29.5415 13.4241 28.9256 7.67582C35.2018 4.54956 43.2829 1.73173 50.9302 -0.510891C64.9761 -5.23592 80.5881 -6.06363 94.7241 -1.27461C108.304 1.62401 120.87 7.84007 131.999 16.0594C134.693 22.8826 147.846 26.175 146.713 32.7937L145.995 32.4491L144.74 31.4656ZM145.052 22.388C137.93 16.8642 131.147 10.9208 123.297 6.42856C113.133 -0.854334 100.559 -2.7021 88.8029 -6.05027C79.6994 -7.60093 70.0644 -8.91733 60.9777 -6.48802C52.5245 -5.04115 44.406 -1.44878 35.872 0.0824776C29.3518 2.85438 21.5342 9.4837 15.4892 9.36824C23.5381 3.14937 32.5092 -2.21301 42.6459 -4.72681C51.0766 -7.57777 59.9307 -7.54683 68.3602 -10.476C76.3095 -9.62949 84.6689 -9.64152 92.4921 -7.63732C108.167 -4.36266 123.533 2.03044 136.371 11.8441C140.193 12.2713 151.453 25.9894 145.15 22.4851L145.052 22.388ZM2.59346 23.3097C6.73198 16.3328 16.558 16.199 22.469 11.2245C28.3195 6.93465 29.1281 13.1215 22.9203 14.0141C16.4339 18.0505 9.16637 19.4119 2.59346 23.3097ZM6.73599 15.4935C6.52278 9.99338 12.8742 18.1272 6.73599 15.4935V15.4935ZM11.8734 12.7216C13.2962 7.91688 16.2945 13.7998 11.8734 12.7216V12.7216ZM5.36476 11.3798C6.2101 6.696 22.2054 1.15641 13.1888 8.04192C11.0441 9.89779 8.34709 11.6999 5.36476 11.3798ZM142.854 10.9227C135.199 8.30205 130.148 1.17575 122.408 -1.44564C108.867 -8.56663 93.5783 -11.0771 78.5122 -12.526C68.6821 -15.2649 59.5537 -11.0823 49.8178 -10.8674C41.3315 -8.66454 33.3546 -4.78531 24.9794 -2.2302C24.5518 -8.13749 37.2832 -7.14528 41.7405 -11.2363C48.5958 -14.3961 56.8261 -11.6063 63.7153 -15.203C71.0686 -16.911 78.4154 -14.9685 85.6871 -14.5279C92.9238 -10.8666 100.832 -12.0353 108.472 -10.3658C119.712 -6.95009 130.232 -1.13697 139.009 6.59222C149.472 11.4276 132.815 -1.76179 129.825 -4.42766C121.484 -11.8533 110.179 -13.7462 99.7968 -16.4041C88.1744 -15.6164 76.57 -21.91 65.147 -17.6437C61.3523 -19.8573 49.3904 -11.6033 51.1599 -17.1569C59.3854 -20.3774 68.4874 -21.2437 77.257 -21.4241C85.9088 -21.0166 93.8952 -17.2838 102.671 -17.8687C114.944 -17.7667 126.001 -11.5794 134.823 -3.47373C137.776 -2.49651 153.48 14.0848 142.854 10.9227ZM8.10723 3.49519C11.6796 -4.40073 29.511 -4.39058 15.0308 1.3427C12.7537 2.15821 10.3977 2.72178 8.10723 3.49519ZM17.1405 3.31023C21.9642 -2.59515 24.9182 6.31315 17.1405 3.31023V3.31023ZM6.50745 -0.668652C8.90778 -5.99183 10.6459 1.35694 6.50745 -0.668652V-0.668652ZM141.921 -1.92817C140.716 -8.36433 148.125 -0.0672307 141.921 -1.92817V-1.92817ZM10.6897 -3.20102C15.2199 -10.7299 26.2841 -11.5374 32.8039 -16.8166C33.6023 -15.6228 31.4277 -11.0353 29.7394 -10.0163C24.1613 -11.0446 16.1245 -4.6658 10.6897 -3.20102ZM138.048 -4.37362C135.492 -12.5811 125.406 -13.865 119.445 -18.8212C112.12 -20.9726 105.187 -23.9907 98.3359 -27.319C90.6794 -30.1976 82.3554 -29.6956 74.3844 -31.1302C66.529 -30.1294 58.6857 -29.632 50.9071 -27.5036C41.747 -25.2162 32.8097 -21.2989 25.0344 -16.2325C19.4345 -20.8025 35.3597 -23.726 39.2941 -26.5105C48.0931 -29.3957 56.9029 -32.4852 66.2796 -32.9739C75.7971 -34.4728 85.2295 -32.4448 94.5676 -31.115C107.526 -26.7504 120.385 -21.684 132.029 -14.4446C135.308 -13.9085 146.837 -3.52571 138.048 -4.37362ZM34.4066 -11.5112C35.4088 -17.7857 46.8378 -12.3236 37.3559 -12.4411C36.2123 -12.9472 35.3151 -10.082 34.4066 -11.5112ZM14.8206 -12.2725C12.6013 -20.0733 28.4152 -14.8107 17.6833 -13.3539C16.8348 -12.8683 15.931 -11.4331 14.8206 -12.2725ZM37.246 -16.3877C41.3961 -21.6975 50.7823 -23.766 56.9889 -24.5984C56.4883 -19.7385 45.8599 -20.9078 41.8869 -16.5742C40.3995 -16.0751 38.7676 -15.974 37.246 -16.3877ZM133.041 -18.8926C122.333 -24.5219 111.295 -29.4361 99.7719 -33.1649C91.8434 -36.3012 82.8675 -36.1618 74.4298 -36.6156C66.0197 -35.1469 57.2729 -36.6577 49.145 -33.9354C44.4187 -33.1793 31.9945 -25.0007 31.3762 -30.4319C39.3181 -31.923 45.7778 -37.971 54.1507 -37.9949C63.2378 -38.9148 72.3633 -39.0921 81.3992 -39.8179C89.1765 -39.222 96.493 -38.1733 103.497 -34.6738C112.253 -31.7292 120.491 -27.3551 129.402 -24.8618C130.196 -23.3758 140.949 -16.3515 133.041 -18.8926ZM16.5267 -19.8148C16.9581 -25.9478 34.7531 -30.3036 24.7416 -23.2382C22.1571 -21.7565 19.3328 -20.7782 16.5267 -19.8148ZM101.868 -20.839C90.8259 -23.3305 79.5937 -24.928 68.2523 -24.053C64.2117 -23.2808 57.2567 -25.8249 65.1688 -26.5222C74.4892 -26.9587 84.062 -27.3749 93.2685 -25.6727C94.7854 -25.9039 107.991 -20.4859 101.868 -20.839ZM124.342 -30.2144C115.399 -35.1014 105.494 -37.6303 96.0242 -41.2127C92.1671 -41.7856 76.2065 -43.1562 87.6461 -44.7853C97.6947 -44.585 106.614 -39.1039 116.24 -36.7746C118.493 -36.8528 134.909 -27.579 124.342 -30.2144ZM26.6858 -32.3005C30.7332 -38.4468 39.1363 -39.1002 45.1851 -42.4456C53.3245 -43.6228 62.1131 -48.0633 69.7018 -46.412C60.7169 -41.7645 50.7354 -42.0119 41.6643 -38.272C36.7489 -36.09 31.919 -33.6639 26.6858 -32.3005ZM67.7101 -40.4805C69.7322 -46.1623 74.4219 -38.1652 67.7101 -40.4805V-40.4805ZM78.3444 -44.2397C77.7781 -46.5105 80.2272 -43.6913 78.3444 -44.2397V-44.2397ZM74.0408 -45.2526C75.2686 -49.3601 75.3876 -41.9378 74.0408 -45.2526V-45.2526ZM72.8557 -48.3595C73.0778 -50.2577 74.6731 -47.2177 72.8557 -48.3595V-48.3595Z" fill="#F4F4E8"/>
</g>
<defs>
<clipPath id="clip0_51557_59212">
<rect width="121" height="131" fill="white"/>
</clipPath>
</defs>
</svg>
